<?xml version="1.0" encoding="utf-8"?>
<!-- Generator: Adobe Illustrator 19.0.0, SVG Export Plug-In . SVG Version: 6.00 Build 0)  -->
<svg version="1.1" id="Layer_1" xmlns="http://www.w3.org/2000/svg" xmlns:xlink="http://www.w3.org/1999/xlink" x="0px" y="0px"
	 viewBox="0 0 841.9 595.3" style="enable-background:new 0 0 841.9 595.3;" xml:space="preserve">
<style type="text/css">
	.st0{fill:#FFFFFF;}
	.st1{fill:#0F4B65;}
	.st2{fill:#4DAD48;}
	.st3{fill:#3A4046;}
</style>
<g>
	<g>
		<path class="st0" d="M286.1,166.9c1.6-0.3,3.2-0.4,4.8-0.4s3.2,0.1,4.8,0.4v46.8c-1.7,0.3-3.2,0.4-4.8,0.4c-1.6,0-3.2-0.1-4.8-0.4
			V166.9z"/>
		<path class="st0" d="M304.8,180c0.6-0.1,1.2-0.2,1.8-0.3c0.6-0.1,1.3-0.1,2-0.1c0.7,0,1.4,0,2,0.1c0.6,0.1,1.2,0.2,1.8,0.3
			c0.1,0.2,0.2,0.5,0.4,0.9c0.1,0.4,0.2,0.8,0.3,1.3c0.1,0.5,0.2,0.9,0.2,1.3c0.1,0.4,0.1,0.8,0.2,1.1c0.4-0.7,0.9-1.3,1.6-2
			c0.6-0.7,1.3-1.2,2.1-1.8c0.8-0.5,1.7-0.9,2.7-1.3c1-0.3,2.1-0.5,3.3-0.5c3.8,0,6.7,1,8.6,3.1c1.9,2.1,2.9,5.4,2.9,9.8v21.5
			c-1.6,0.3-3.1,0.4-4.6,0.4c-1.5,0-3.1-0.1-4.6-0.4v-19c0-2.3-0.4-4.1-1.1-5.4c-0.7-1.3-2-1.9-3.7-1.9c-0.7,0-1.5,0.1-2.3,0.3
			c-0.8,0.2-1.5,0.6-2.1,1.3c-0.6,0.6-1.1,1.5-1.5,2.6c-0.4,1.1-0.6,2.6-0.6,4.4v17.7c-1.6,0.3-3.1,0.4-4.6,0.4
			c-1.5,0-3.1-0.1-4.6-0.4V180z"/>
		<path class="st0" d="M343.9,187.1h-4.2l-0.3-1.3l12.2-15.6h1.5v9.8h7.9c0.1,0.7,0.2,1.2,0.3,1.8c0,0.5,0.1,1.1,0.1,1.6
			c0,0.6,0,1.2-0.1,1.8c0,0.6-0.1,1.2-0.3,1.9H353v13.2c0,1.3,0.1,2.4,0.3,3.3c0.2,0.8,0.5,1.5,0.9,2c0.4,0.5,0.9,0.8,1.5,1
			c0.6,0.2,1.3,0.3,2.1,0.3c0.6,0,1.3-0.1,1.9-0.2c0.6-0.1,1.2-0.2,1.7-0.3c0.3,0.8,0.5,1.7,0.6,2.6c0.1,0.9,0.2,1.7,0.2,2.4
			c0,0.5,0,0.9,0,1.2c0,0.3-0.1,0.6-0.1,0.9c-2,0.5-4.1,0.7-6.2,0.7c-4,0-7-0.9-9.1-2.8c-2.1-1.8-3.1-4.9-3.1-9V187.1z"/>
		<path class="st0" d="M375.3,199.7c0.2,2.6,1.1,4.5,2.7,5.7c1.7,1.2,3.8,1.8,6.5,1.8c1.5,0,3-0.1,4.5-0.4c1.5-0.3,3-0.7,4.4-1.2
			c0.5,0.9,0.9,1.9,1.2,3.1c0.3,1.2,0.5,2.5,0.6,3.9c-3.4,1.3-7.2,2-11.5,2c-3.1,0-5.8-0.4-8-1.3c-2.2-0.9-4.1-2.1-5.5-3.6
			c-1.4-1.5-2.5-3.4-3.1-5.5c-0.7-2.1-1-4.5-1-7c0-2.5,0.3-4.8,1-7c0.7-2.2,1.7-4.1,3.1-5.7c1.4-1.6,3.1-2.9,5.1-3.8
			c2-0.9,4.4-1.4,7.1-1.4c2.3,0,4.4,0.4,6.3,1.2c1.8,0.8,3.4,2,4.7,3.4c1.3,1.4,2.2,3.1,2.9,5.1c0.6,2,1,4.1,1,6.3
			c0,0.8,0,1.6-0.1,2.4c-0.1,0.8-0.1,1.4-0.2,1.9H375.3z M388.5,193.2c-0.1-2.1-0.7-3.8-1.7-5c-1.1-1.3-2.6-1.9-4.5-1.9
			c-2.2,0-3.8,0.6-5,1.8c-1.1,1.2-1.8,2.9-2,5.1H388.5z"/>
		<path class="st0" d="M404.3,166.1c1.6-0.3,3.1-0.4,4.6-0.4c1.5,0,3,0.1,4.6,0.4v34.2c0,1.3,0.1,2.4,0.2,3.3
			c0.1,0.8,0.4,1.5,0.7,1.9c0.3,0.5,0.8,0.8,1.3,0.9c0.5,0.2,1.2,0.3,2,0.3c0.3,0,0.7,0,1.1-0.1c0.4,0,0.8-0.1,1.2-0.2
			c0.5,1.8,0.7,3.5,0.7,5.2c0,0.3,0,0.7,0,0.9s0,0.6-0.1,0.9c-0.7,0.2-1.5,0.4-2.5,0.5c-1,0.1-1.9,0.1-2.7,0.1c-3.3,0-6-0.9-8-2.8
			c-2-1.8-3-4.9-3-9V166.1z"/>
		<path class="st0" d="M425.4,166.1c1.6-0.3,3.1-0.4,4.6-0.4c1.5,0,3,0.1,4.6,0.4v34.2c0,1.3,0.1,2.4,0.2,3.3
			c0.2,0.8,0.4,1.5,0.7,1.9c0.3,0.5,0.8,0.8,1.3,0.9c0.5,0.2,1.2,0.3,2,0.3c0.3,0,0.7,0,1.1-0.1c0.4,0,0.8-0.1,1.2-0.2
			c0.5,1.8,0.7,3.5,0.7,5.2c0,0.3,0,0.7,0,0.9s0,0.6-0.1,0.9c-0.7,0.2-1.5,0.4-2.5,0.5c-1,0.1-1.9,0.1-2.7,0.1c-3.3,0-6-0.9-8-2.8
			s-3-4.9-3-9V166.1z"/>
		<path class="st0" d="M448.6,187.1h-4.4c-0.1-0.6-0.2-1.2-0.3-1.8c-0.1-0.6-0.1-1.2-0.1-1.8c0-1.2,0.1-2.3,0.4-3.5h13.4v33.7
			c-1.6,0.3-3.1,0.4-4.6,0.4c-1.4,0-2.9-0.1-4.5-0.4V187.1z M447.2,174.4c-0.3-1.5-0.4-2.9-0.4-4.4c0-1.4,0.1-2.8,0.4-4.4
			c0.7-0.1,1.5-0.2,2.4-0.3c0.8-0.1,1.6-0.1,2.3-0.1c0.7,0,1.5,0,2.4,0.1c0.9,0.1,1.7,0.2,2.4,0.3c0.1,0.7,0.2,1.5,0.3,2.2
			c0,0.7,0.1,1.4,0.1,2.2c0,0.7,0,1.4-0.1,2.1c0,0.7-0.1,1.5-0.3,2.2c-0.7,0.1-1.5,0.2-2.4,0.3c-0.8,0-1.6,0.1-2.4,0.1
			c-0.7,0-1.5,0-2.3-0.1C448.8,174.6,448,174.5,447.2,174.4z"/>
		<path class="st0" d="M489.6,192c-1.5-0.6-2.8-1.2-4-1.9c-1.2-0.7-2.2-1.5-3-2.4c-0.8-0.9-1.5-2.1-1.9-3.4
			c-0.5-1.3-0.7-2.9-0.7-4.7c0-2.2,0.4-4.2,1.1-5.9c0.8-1.7,1.8-3.1,3.2-4.3c1.4-1.1,3.1-2,5-2.6c2-0.6,4.1-0.9,6.6-0.9
			c2.2,0,4.3,0.2,6.2,0.6c1.9,0.4,4,1,6.1,1.7c-0.3,2.5-1,5-2.1,7.4c-0.7-0.3-1.3-0.5-2-0.8c-0.7-0.3-1.4-0.5-2.1-0.7
			c-0.8-0.2-1.6-0.3-2.6-0.4c-1-0.1-2-0.2-3.3-0.2c-0.7,0-1.5,0.1-2.2,0.2c-0.8,0.1-1.4,0.4-2.1,0.7c-0.6,0.3-1.1,0.9-1.5,1.5
			c-0.4,0.7-0.6,1.6-0.6,2.6c0,0.9,0.2,1.6,0.5,2.2c0.3,0.6,0.7,1.1,1.2,1.5c0.5,0.4,1.1,0.8,1.8,1c0.6,0.3,1.3,0.6,2,0.8l3.9,1.5
			c1.6,0.7,3.1,1.3,4.5,2c1.3,0.7,2.5,1.6,3.4,2.6c0.9,1,1.7,2.3,2.2,3.7c0.5,1.5,0.8,3.2,0.8,5.4c0,2.2-0.4,4.2-1.2,6.1
			c-0.8,1.8-2,3.4-3.5,4.7c-1.5,1.3-3.4,2.3-5.6,3.1c-2.2,0.7-4.8,1.1-7.7,1.1c-1.4,0-2.7,0-3.8-0.1c-1.1-0.1-2.2-0.2-3.2-0.4
			c-1-0.2-2-0.4-3-0.8s-2-0.7-3.1-1.1c0.1-1.3,0.4-2.6,0.7-3.9c0.3-1.4,0.8-2.7,1.2-4.1c1.8,0.7,3.5,1.3,5.1,1.7
			c1.6,0.4,3.3,0.6,5.1,0.6c2.7,0,4.9-0.5,6.4-1.5c1.6-1,2.3-2.6,2.3-4.7c0-1-0.2-1.9-0.6-2.6c-0.4-0.7-0.8-1.3-1.4-1.8
			c-0.6-0.5-1.2-0.9-2-1.2c-0.7-0.3-1.5-0.6-2.3-0.9L489.6,192z"/>
		<path class="st0" d="M531.2,214.5c-2.7,0-5.1-0.4-7.1-1.3c-2-0.9-3.7-2.1-5-3.7c-1.3-1.6-2.3-3.4-3-5.6c-0.7-2.1-1-4.4-1-6.9
			c0-2.5,0.3-4.8,1-7c0.7-2.2,1.7-4,3-5.6c1.3-1.6,3-2.8,5-3.7c2-0.9,4.4-1.4,7.1-1.4c2.7,0,5.1,0.5,7.2,1.4c2,0.9,3.7,2.2,5.1,3.7
			c1.3,1.6,2.3,3.5,3,5.6c0.6,2.2,1,4.5,1,7c0,2.5-0.3,4.8-1,6.9c-0.7,2.1-1.7,4-3,5.6c-1.4,1.6-3,2.8-5.1,3.7
			C536.3,214,533.9,214.5,531.2,214.5z M531.2,207.4c2.4,0,4.2-0.9,5.2-2.7c1.1-1.8,1.6-4.4,1.6-7.8c0-3.4-0.5-6-1.6-7.8
			c-1.1-1.8-2.8-2.7-5.2-2.7c-2.4,0-4.1,0.9-5.2,2.7c-1.1,1.8-1.6,4.4-1.6,7.8c0,3.4,0.5,6,1.6,7.8
			C527.1,206.5,528.8,207.4,531.2,207.4z"/>
		<path class="st0" d="M556.9,187.1h-5.3c-0.1-0.7-0.2-1.3-0.3-1.9c0-0.6-0.1-1.1-0.1-1.8c0-0.6,0-1.1,0.1-1.6
			c0-0.5,0.1-1.1,0.3-1.8h5.3v-1.6c0-2.1,0.3-3.9,0.9-5.6c0.6-1.6,1.5-3,2.7-4.1c1.2-1.1,2.6-2,4.2-2.5c1.6-0.6,3.4-0.9,5.4-0.9
			c1.3,0,2.4,0.1,3.3,0.2c0.9,0.1,1.9,0.3,2.9,0.6c-0.1,1.4-0.2,2.7-0.4,3.9c-0.2,1.1-0.5,2.3-0.9,3.4c-0.5-0.1-1-0.2-1.5-0.3
			c-0.5-0.1-1.2-0.2-2.1-0.2c-1.5,0-2.8,0.4-3.7,1.1c-1,0.7-1.5,2.2-1.6,4.6v1.4h7.8c0.1,0.7,0.2,1.3,0.3,1.9c0,0.6,0.1,1.1,0.1,1.8
			c0,0.6,0,1.1-0.1,1.6c0,0.5-0.1,1.1-0.3,1.8h-7.8v26.6c-1.6,0.3-3.1,0.4-4.6,0.4c-1.5,0-3.1-0.1-4.6-0.4V187.1z"/>
		<path class="st0" d="M581.4,187.1h-4.2l-0.3-1.3l12.2-15.6h1.5v9.8h7.9c0.1,0.7,0.2,1.2,0.3,1.8c0,0.5,0.1,1.1,0.1,1.6
			c0,0.6,0,1.2-0.1,1.8c0,0.6-0.1,1.2-0.3,1.9h-7.9v13.2c0,1.3,0.1,2.4,0.3,3.3c0.2,0.8,0.5,1.5,0.9,2c0.4,0.5,0.9,0.8,1.5,1
			c0.6,0.2,1.3,0.3,2.1,0.3c0.7,0,1.3-0.1,1.9-0.2c0.6-0.1,1.2-0.2,1.7-0.3c0.3,0.8,0.5,1.7,0.7,2.6c0.1,0.9,0.2,1.7,0.2,2.4
			c0,0.5,0,0.9,0,1.2c0,0.3-0.1,0.6-0.1,0.9c-2,0.5-4.1,0.7-6.2,0.7c-4,0-7-0.9-9-2.8c-2.1-1.8-3.1-4.9-3.1-9V187.1z"/>
		<path class="st0" d="M619.7,166.7c2-0.2,4-0.3,6.1-0.4c2-0.1,4.1-0.2,6.2-0.2c2.2,0,4.4,0.2,6.6,0.7c2.2,0.4,4.3,1.2,6.1,2.4
			c1.8,1.2,3.3,2.9,4.4,5c1.1,2.1,1.7,4.9,1.7,8.3c0,3.4-0.6,6.1-1.7,8.2c-1.1,2.1-2.6,3.8-4.4,5c-1.8,1.2-3.8,2-6,2.5
			c-2.2,0.4-4.4,0.7-6.5,0.7c-0.6,0-1.1,0-1.6,0c-0.5,0-1-0.1-1.4-0.1v15c-0.8,0.1-1.6,0.2-2.4,0.3c-0.8,0-1.5,0.1-2.3,0.1
			c-0.7,0-1.5,0-2.3-0.1c-0.8,0-1.7-0.1-2.5-0.3V166.7z M629.3,190.8c0.5,0.1,1,0.1,1.5,0.1c0.5,0,1,0,1.7,0c1.1,0,2.1-0.1,3.2-0.4
			c1-0.3,2-0.7,2.8-1.4c0.8-0.7,1.4-1.5,1.9-2.6c0.5-1.1,0.7-2.4,0.7-3.9c0-1.6-0.2-3-0.7-4.1c-0.5-1.1-1.1-2-1.9-2.7
			c-0.8-0.7-1.7-1.1-2.8-1.4c-1-0.3-2.1-0.4-3.2-0.4c-0.5,0-0.9,0-1.3,0c-0.4,0-1,0.1-1.8,0.2V190.8z"/>
		<path class="st0" d="M657.5,166.1c1.6-0.3,3.1-0.4,4.6-0.4c1.5,0,3,0.1,4.6,0.4v34.2c0,1.3,0.1,2.4,0.2,3.3
			c0.2,0.8,0.4,1.5,0.7,1.9c0.3,0.5,0.8,0.8,1.3,0.9c0.5,0.2,1.2,0.3,2,0.3c0.3,0,0.7,0,1.1-0.1c0.4,0,0.8-0.1,1.2-0.2
			c0.5,1.8,0.7,3.5,0.7,5.2c0,0.3,0,0.7,0,0.9s0,0.6-0.1,0.9c-0.7,0.2-1.5,0.4-2.5,0.5c-1,0.1-1.9,0.1-2.7,0.1c-3.3,0-6-0.9-8-2.8
			c-2-1.8-3-4.9-3-9V166.1z"/>
		<path class="st0" d="M678.2,180c1.6-0.3,3.1-0.4,4.6-0.4c1.5,0,3.1,0.1,4.6,0.4v17.8c0,1.8,0.1,3.2,0.4,4.4
			c0.3,1.1,0.7,2.1,1.3,2.7c0.6,0.7,1.3,1.2,2.2,1.4c0.9,0.3,1.9,0.4,3.1,0.4c1.6,0,2.9-0.2,4-0.5V180c1.6-0.3,3.1-0.4,4.6-0.4
			c1.5,0,3.1,0.1,4.6,0.4v32.4c-1.4,0.5-3.2,0.9-5.5,1.4c-2.3,0.5-4.7,0.7-7.1,0.7c-2.2,0-4.3-0.2-6.4-0.5c-2-0.3-3.8-1.1-5.4-2.2
			c-1.5-1.1-2.8-2.8-3.7-5c-0.9-2.2-1.4-5.1-1.4-8.7V180z"/>
		<path class="st0" d="M722.6,199c-2.4-0.7-4.3-1.7-5.7-3.1c-1.4-1.4-2.1-3.4-2.1-6.2c0-3.3,1.2-5.9,3.6-7.8
			c2.4-1.9,5.6-2.8,9.7-2.8c1.7,0,3.4,0.2,5,0.5c1.7,0.3,3.3,0.8,5,1.4c-0.1,1.1-0.3,2.3-0.6,3.5c-0.3,1.2-0.8,2.3-1.2,3.2
			c-1-0.4-2.2-0.8-3.5-1.1c-1.3-0.3-2.6-0.5-4-0.5c-1.5,0-2.6,0.2-3.5,0.7c-0.8,0.5-1.2,1.2-1.2,2.2c0,1,0.3,1.6,0.9,2
			c0.6,0.4,1.4,0.8,2.5,1.1l3.7,1.1c1.2,0.3,2.3,0.8,3.3,1.3c1,0.5,1.8,1.1,2.5,1.9c0.7,0.7,1.2,1.7,1.6,2.7c0.4,1.1,0.6,2.4,0.6,4
			c0,1.6-0.3,3.1-1,4.5c-0.7,1.4-1.6,2.6-2.9,3.6c-1.3,1-2.8,1.8-4.7,2.4c-1.8,0.6-3.9,0.9-6.2,0.9c-1,0-2,0-2.9-0.1
			c-0.9-0.1-1.7-0.2-2.5-0.3c-0.8-0.2-1.6-0.3-2.4-0.6c-0.8-0.2-1.6-0.5-2.5-0.8c0.1-1.2,0.3-2.4,0.6-3.6c0.3-1.2,0.8-2.4,1.3-3.5
			c1.4,0.6,2.8,1,4.1,1.3c1.3,0.3,2.6,0.4,4,0.4c0.6,0,1.3-0.1,2-0.2c0.7-0.1,1.4-0.3,2-0.6c0.6-0.3,1.1-0.7,1.5-1.1
			c0.4-0.5,0.6-1.1,0.6-1.8c0-1-0.3-1.8-0.9-2.2c-0.6-0.5-1.5-0.9-2.6-1.2L722.6,199z"/>
	</g>
	<g>
		<g>
			<path class="st1" d="M163.4,129.8c-18.1,0-37.2,14.7-42.7,32.7l-4.8,15.7H164l14.8-48.5H163.4z"/>
		</g>
		<polygon class="st2" points="201.9,129.8 250,129.8 235.2,178.3 187.1,178.3 		"/>
		<g>
			<path class="st1" d="M180.6,249.9c18.1,0,37.2-14.7,42.7-32.7l4.8-15.7H180l-14.8,48.5H180.6z"/>
		</g>
		<polygon class="st2" points="156.9,201.4 108.8,201.4 94,249.9 142.1,249.9 		"/>
		<polygon class="st3" points="180,201.4 156.9,201.4 164,178.3 187.1,178.3 		"/>
	</g>
</g>
</svg>
