<?xml version="1.0" encoding="utf-8"?>
<!-- Generator: Adobe Illustrator 19.0.0, SVG Export Plug-In . SVG Version: 6.00 Build 0)  -->
<svg version="1.1" id="Layer_1" xmlns="http://www.w3.org/2000/svg" xmlns:xlink="http://www.w3.org/1999/xlink" x="0px" y="0px"
	 viewBox="-58 -17.3 841.9 595.3" style="enable-background:new -58 -17.3 841.9 595.3;" xml:space="preserve">
<style type="text/css">
	.st0{fill:#0F4B65;}
	.st1{fill:#4DAD48;}
	.st2{fill:#3A4046;}
</style>
<g>
	<g>
		<path d="M228.1,149.6c1.6-0.3,3.2-0.4,4.8-0.4s3.2,0.1,4.8,0.4v46.8c-1.7,0.3-3.2,0.4-4.8,0.4c-1.6,0-3.2-0.1-4.8-0.4V149.6z"/>
		<path d="M246.8,162.7c0.6-0.1,1.2-0.2,1.8-0.3c0.6-0.1,1.3-0.1,2-0.1s1.4,0,2,0.1s1.2,0.2,1.8,0.3c0.1,0.2,0.2,0.5,0.4,0.9
			c0.1,0.4,0.2,0.8,0.3,1.3c0.1,0.5,0.2,0.9,0.2,1.3c0.1,0.4,0.1,0.8,0.2,1.1c0.4-0.7,0.9-1.3,1.6-2c0.6-0.7,1.3-1.2,2.1-1.8
			c0.8-0.5,1.7-0.9,2.7-1.3c1-0.3,2.1-0.5,3.3-0.5c3.8,0,6.7,1,8.6,3.1s2.9,5.4,2.9,9.8v21.5c-1.6,0.3-3.1,0.4-4.6,0.4
			s-3.1-0.1-4.6-0.4v-19c0-2.3-0.4-4.1-1.1-5.4c-0.7-1.3-2-1.9-3.7-1.9c-0.7,0-1.5,0.1-2.3,0.3s-1.5,0.6-2.1,1.3
			c-0.6,0.6-1.1,1.5-1.5,2.6s-0.6,2.6-0.6,4.4v17.7c-1.6,0.3-3.1,0.4-4.6,0.4s-3.1-0.1-4.6-0.4v-33.4H246.8z"/>
		<path d="M285.9,169.8h-4.2l-0.3-1.3l12.2-15.6h1.5v9.8h7.9c0.1,0.7,0.2,1.2,0.3,1.8c0,0.5,0.1,1.1,0.1,1.6c0,0.6,0,1.2-0.1,1.8
			c0,0.6-0.1,1.2-0.3,1.9h-8V183c0,1.3,0.1,2.4,0.3,3.3c0.2,0.8,0.5,1.5,0.9,2s0.9,0.8,1.5,1s1.3,0.3,2.1,0.3c0.6,0,1.3-0.1,1.9-0.2
			c0.6-0.1,1.2-0.2,1.7-0.3c0.3,0.8,0.5,1.7,0.6,2.6c0.1,0.9,0.2,1.7,0.2,2.4c0,0.5,0,0.9,0,1.2s-0.1,0.6-0.1,0.9
			c-2,0.5-4.1,0.7-6.2,0.7c-4,0-7-0.9-9.1-2.8c-2.1-1.8-3.1-4.9-3.1-9v-15.3H285.9z"/>
		<path d="M317.3,182.4c0.2,2.6,1.1,4.5,2.7,5.7c1.7,1.2,3.8,1.8,6.5,1.8c1.5,0,3-0.1,4.5-0.4c1.5-0.3,3-0.7,4.4-1.2
			c0.5,0.9,0.9,1.9,1.2,3.1c0.3,1.2,0.5,2.5,0.6,3.9c-3.4,1.3-7.2,2-11.5,2c-3.1,0-5.8-0.4-8-1.3c-2.2-0.9-4.1-2.1-5.5-3.6
			s-2.5-3.4-3.1-5.5c-0.7-2.1-1-4.5-1-7s0.3-4.8,1-7s1.7-4.1,3.1-5.7c1.4-1.6,3.1-2.9,5.1-3.8c2-0.9,4.4-1.4,7.1-1.4
			c2.3,0,4.4,0.4,6.3,1.2c1.8,0.8,3.4,2,4.7,3.4c1.3,1.4,2.2,3.1,2.9,5.1c0.6,2,1,4.1,1,6.3c0,0.8,0,1.6-0.1,2.4
			c-0.1,0.8-0.1,1.4-0.2,1.9h-21.7V182.4z M330.5,175.9c-0.1-2.1-0.7-3.8-1.7-5c-1.1-1.3-2.6-1.9-4.5-1.9c-2.2,0-3.8,0.6-5,1.8
			c-1.1,1.2-1.8,2.9-2,5.1L330.5,175.9L330.5,175.9z"/>
		<path d="M346.3,148.8c1.6-0.3,3.1-0.4,4.6-0.4s3,0.1,4.6,0.4V183c0,1.3,0.1,2.4,0.2,3.3c0.1,0.8,0.4,1.5,0.7,1.9
			c0.3,0.5,0.8,0.8,1.3,0.9c0.5,0.2,1.2,0.3,2,0.3c0.3,0,0.7,0,1.1-0.1c0.4,0,0.8-0.1,1.2-0.2c0.5,1.8,0.7,3.5,0.7,5.2
			c0,0.3,0,0.7,0,0.9s0,0.6-0.1,0.9c-0.7,0.2-1.5,0.4-2.5,0.5s-1.9,0.1-2.7,0.1c-3.3,0-6-0.9-8-2.8c-2-1.8-3-4.9-3-9v-36.1H346.3z"
			/>
		<path d="M367.4,148.8c1.6-0.3,3.1-0.4,4.6-0.4s3,0.1,4.6,0.4V183c0,1.3,0.1,2.4,0.2,3.3c0.2,0.8,0.4,1.5,0.7,1.9
			c0.3,0.5,0.8,0.8,1.3,0.9c0.5,0.2,1.2,0.3,2,0.3c0.3,0,0.7,0,1.1-0.1c0.4,0,0.8-0.1,1.2-0.2c0.5,1.8,0.7,3.5,0.7,5.2
			c0,0.3,0,0.7,0,0.9s0,0.6-0.1,0.9c-0.7,0.2-1.5,0.4-2.5,0.5s-1.9,0.1-2.7,0.1c-3.3,0-6-0.9-8-2.8s-3-4.9-3-9v-36.1H367.4z"/>
		<path d="M390.6,169.8h-4.4c-0.1-0.6-0.2-1.2-0.3-1.8c-0.1-0.6-0.1-1.2-0.1-1.8c0-1.2,0.1-2.3,0.4-3.5h13.4v33.7
			c-1.6,0.3-3.1,0.4-4.6,0.4c-1.4,0-2.9-0.1-4.5-0.4v-26.6H390.6z M389.2,157.1c-0.3-1.5-0.4-2.9-0.4-4.4c0-1.4,0.1-2.8,0.4-4.4
			c0.7-0.1,1.5-0.2,2.4-0.3c0.8-0.1,1.6-0.1,2.3-0.1c0.7,0,1.5,0,2.4,0.1s1.7,0.2,2.4,0.3c0.1,0.7,0.2,1.5,0.3,2.2
			c0,0.7,0.1,1.4,0.1,2.2c0,0.7,0,1.4-0.1,2.1c0,0.7-0.1,1.5-0.3,2.2c-0.7,0.1-1.5,0.2-2.4,0.3c-0.8,0-1.6,0.1-2.4,0.1
			c-0.7,0-1.5,0-2.3-0.1C390.8,157.3,390,157.2,389.2,157.1z"/>
		<path d="M431.6,174.7c-1.5-0.6-2.8-1.2-4-1.9s-2.2-1.5-3-2.4s-1.5-2.1-1.9-3.4c-0.5-1.3-0.7-2.9-0.7-4.7c0-2.2,0.4-4.2,1.1-5.9
			c0.8-1.7,1.8-3.1,3.2-4.3c1.4-1.1,3.1-2,5-2.6c2-0.6,4.1-0.9,6.6-0.9c2.2,0,4.3,0.2,6.2,0.6c1.9,0.4,4,1,6.1,1.7
			c-0.3,2.5-1,5-2.1,7.4c-0.7-0.3-1.3-0.5-2-0.8s-1.4-0.5-2.1-0.7c-0.8-0.2-1.6-0.3-2.6-0.4c-1-0.1-2-0.2-3.3-0.2
			c-0.7,0-1.5,0.1-2.2,0.2c-0.8,0.1-1.4,0.4-2.1,0.7c-0.6,0.3-1.1,0.9-1.5,1.5c-0.4,0.7-0.6,1.6-0.6,2.6c0,0.9,0.2,1.6,0.5,2.2
			c0.3,0.6,0.7,1.1,1.2,1.5s1.1,0.8,1.8,1c0.6,0.3,1.3,0.6,2,0.8l3.9,1.5c1.6,0.7,3.1,1.3,4.5,2c1.3,0.7,2.5,1.6,3.4,2.6
			s1.7,2.3,2.2,3.7c0.5,1.5,0.8,3.2,0.8,5.4s-0.4,4.2-1.2,6.1c-0.8,1.8-2,3.4-3.5,4.7s-3.4,2.3-5.6,3.1c-2.2,0.7-4.8,1.1-7.7,1.1
			c-1.4,0-2.7,0-3.8-0.1c-1.1-0.1-2.2-0.2-3.2-0.4s-2-0.4-3-0.8s-2-0.7-3.1-1.1c0.1-1.3,0.4-2.6,0.7-3.9c0.3-1.4,0.8-2.7,1.2-4.1
			c1.8,0.7,3.5,1.3,5.1,1.7s3.3,0.6,5.1,0.6c2.7,0,4.9-0.5,6.4-1.5c1.6-1,2.3-2.6,2.3-4.7c0-1-0.2-1.9-0.6-2.6
			c-0.4-0.7-0.8-1.3-1.4-1.8s-1.2-0.9-2-1.2c-0.7-0.3-1.5-0.6-2.3-0.9L431.6,174.7z"/>
		<path d="M473.2,197.2c-2.7,0-5.1-0.4-7.1-1.3c-2-0.9-3.7-2.1-5-3.7c-1.3-1.6-2.3-3.4-3-5.6c-0.7-2.1-1-4.4-1-6.9s0.3-4.8,1-7
			s1.7-4,3-5.6s3-2.8,5-3.7s4.4-1.4,7.1-1.4c2.7,0,5.1,0.5,7.2,1.4c2,0.9,3.7,2.2,5.1,3.7c1.3,1.6,2.3,3.5,3,5.6c0.6,2.2,1,4.5,1,7
			s-0.3,4.8-1,6.9c-0.7,2.1-1.7,4-3,5.6c-1.4,1.6-3,2.8-5.1,3.7C478.3,196.7,475.9,197.2,473.2,197.2z M473.2,190.1
			c2.4,0,4.2-0.9,5.2-2.7c1.1-1.8,1.6-4.4,1.6-7.8c0-3.4-0.5-6-1.6-7.8s-2.8-2.7-5.2-2.7s-4.1,0.9-5.2,2.7c-1.1,1.8-1.6,4.4-1.6,7.8
			c0,3.4,0.5,6,1.6,7.8S470.8,190.1,473.2,190.1z"/>
		<path d="M498.9,169.8h-5.3c-0.1-0.7-0.2-1.3-0.3-1.9c0-0.6-0.1-1.1-0.1-1.8c0-0.6,0-1.1,0.1-1.6c0-0.5,0.1-1.1,0.3-1.8h5.3v-1.6
			c0-2.1,0.3-3.9,0.9-5.6c0.6-1.6,1.5-3,2.7-4.1s2.6-2,4.2-2.5c1.6-0.6,3.4-0.9,5.4-0.9c1.3,0,2.4,0.1,3.3,0.2
			c0.9,0.1,1.9,0.3,2.9,0.6c-0.1,1.4-0.2,2.7-0.4,3.9c-0.2,1.1-0.5,2.3-0.9,3.4c-0.5-0.1-1-0.2-1.5-0.3s-1.2-0.2-2.1-0.2
			c-1.5,0-2.8,0.4-3.7,1.1c-1,0.7-1.5,2.2-1.6,4.6v1.4h7.8c0.1,0.7,0.2,1.3,0.3,1.9c0,0.6,0.1,1.1,0.1,1.8c0,0.6,0,1.1-0.1,1.6
			c0,0.5-0.1,1.1-0.3,1.8h-7.8v26.6c-1.6,0.3-3.1,0.4-4.6,0.4s-3.1-0.1-4.6-0.4L498.9,169.8L498.9,169.8z"/>
		<path d="M523.4,169.8h-4.2l-0.3-1.3l12.2-15.6h1.5v9.8h7.9c0.1,0.7,0.2,1.2,0.3,1.8c0,0.5,0.1,1.1,0.1,1.6c0,0.6,0,1.2-0.1,1.8
			c0,0.6-0.1,1.2-0.3,1.9h-7.9V183c0,1.3,0.1,2.4,0.3,3.3c0.2,0.8,0.5,1.5,0.9,2s0.9,0.8,1.5,1s1.3,0.3,2.1,0.3
			c0.7,0,1.3-0.1,1.9-0.2c0.6-0.1,1.2-0.2,1.7-0.3c0.3,0.8,0.5,1.7,0.7,2.6c0.1,0.9,0.2,1.7,0.2,2.4c0,0.5,0,0.9,0,1.2
			s-0.1,0.6-0.1,0.9c-2,0.5-4.1,0.7-6.2,0.7c-4,0-7-0.9-9-2.8c-2.1-1.8-3.1-4.9-3.1-9v-15.3H523.4z"/>
		<path d="M561.7,149.4c2-0.2,4-0.3,6.1-0.4c2-0.1,4.1-0.2,6.2-0.2c2.2,0,4.4,0.2,6.6,0.7c2.2,0.4,4.3,1.2,6.1,2.4s3.3,2.9,4.4,5
			c1.1,2.1,1.7,4.9,1.7,8.3c0,3.4-0.6,6.1-1.7,8.2c-1.1,2.1-2.6,3.8-4.4,5c-1.8,1.2-3.8,2-6,2.5c-2.2,0.4-4.4,0.7-6.5,0.7
			c-0.6,0-1.1,0-1.6,0s-1-0.1-1.4-0.1v15c-0.8,0.1-1.6,0.2-2.4,0.3c-0.8,0-1.5,0.1-2.3,0.1c-0.7,0-1.5,0-2.3-0.1
			c-0.8,0-1.7-0.1-2.5-0.3L561.7,149.4L561.7,149.4z M571.3,173.5c0.5,0.1,1,0.1,1.5,0.1s1,0,1.7,0c1.1,0,2.1-0.1,3.2-0.4
			c1-0.3,2-0.7,2.8-1.4s1.4-1.5,1.9-2.6s0.7-2.4,0.7-3.9c0-1.6-0.2-3-0.7-4.1s-1.1-2-1.9-2.7c-0.8-0.7-1.7-1.1-2.8-1.4
			c-1-0.3-2.1-0.4-3.2-0.4c-0.5,0-0.9,0-1.3,0c-0.4,0-1,0.1-1.8,0.2v16.6H571.3z"/>
		<path d="M599.5,148.8c1.6-0.3,3.1-0.4,4.6-0.4s3,0.1,4.6,0.4V183c0,1.3,0.1,2.4,0.2,3.3c0.2,0.8,0.4,1.5,0.7,1.9
			c0.3,0.5,0.8,0.8,1.3,0.9c0.5,0.2,1.2,0.3,2,0.3c0.3,0,0.7,0,1.1-0.1c0.4,0,0.8-0.1,1.2-0.2c0.5,1.8,0.7,3.5,0.7,5.2
			c0,0.3,0,0.7,0,0.9s0,0.6-0.1,0.9c-0.7,0.2-1.5,0.4-2.5,0.5s-1.9,0.1-2.7,0.1c-3.3,0-6-0.9-8-2.8c-2-1.8-3-4.9-3-9L599.5,148.8
			L599.5,148.8z"/>
		<path d="M620.2,162.7c1.6-0.3,3.1-0.4,4.6-0.4s3.1,0.1,4.6,0.4v17.8c0,1.8,0.1,3.2,0.4,4.4c0.3,1.1,0.7,2.1,1.3,2.7
			c0.6,0.7,1.3,1.2,2.2,1.4c0.9,0.3,1.9,0.4,3.1,0.4c1.6,0,2.9-0.2,4-0.5v-26.2c1.6-0.3,3.1-0.4,4.6-0.4s3.1,0.1,4.6,0.4v32.4
			c-1.4,0.5-3.2,0.9-5.5,1.4s-4.7,0.7-7.1,0.7c-2.2,0-4.3-0.2-6.4-0.5c-2-0.3-3.8-1.1-5.4-2.2c-1.5-1.1-2.8-2.8-3.7-5
			s-1.4-5.1-1.4-8.7v-18.1H620.2z"/>
		<path d="M664.6,181.7c-2.4-0.7-4.3-1.7-5.7-3.1c-1.4-1.4-2.1-3.4-2.1-6.2c0-3.3,1.2-5.9,3.6-7.8c2.4-1.9,5.6-2.8,9.7-2.8
			c1.7,0,3.4,0.2,5,0.5c1.7,0.3,3.3,0.8,5,1.4c-0.1,1.1-0.3,2.3-0.6,3.5s-0.8,2.3-1.2,3.2c-1-0.4-2.2-0.8-3.5-1.1s-2.6-0.5-4-0.5
			c-1.5,0-2.6,0.2-3.5,0.7c-0.8,0.5-1.2,1.2-1.2,2.2s0.3,1.6,0.9,2c0.6,0.4,1.4,0.8,2.5,1.1l3.7,1.1c1.2,0.3,2.3,0.8,3.3,1.3
			s1.8,1.1,2.5,1.9c0.7,0.7,1.2,1.7,1.6,2.7c0.4,1.1,0.6,2.4,0.6,4s-0.3,3.1-1,4.5s-1.6,2.6-2.9,3.6c-1.3,1-2.8,1.8-4.7,2.4
			c-1.8,0.6-3.9,0.9-6.2,0.9c-1,0-2,0-2.9-0.1s-1.7-0.2-2.5-0.3c-0.8-0.2-1.6-0.3-2.4-0.6c-0.8-0.2-1.6-0.5-2.5-0.8
			c0.1-1.2,0.3-2.4,0.6-3.6c0.3-1.2,0.8-2.4,1.3-3.5c1.4,0.6,2.8,1,4.1,1.3s2.6,0.4,4,0.4c0.6,0,1.3-0.1,2-0.2
			c0.7-0.1,1.4-0.3,2-0.6s1.1-0.7,1.5-1.1c0.4-0.5,0.6-1.1,0.6-1.8c0-1-0.3-1.8-0.9-2.2c-0.6-0.5-1.5-0.9-2.6-1.2L664.6,181.7z"/>
	</g>
	<g>
		<g>
			<path class="st0" d="M105.4,112.5c-18.1,0-37.2,14.7-42.7,32.7l-4.8,15.7H106l14.8-48.5h-15.4V112.5z"/>
		</g>
		<polygon class="st1" points="143.9,112.5 192,112.5 177.2,161 129.1,161 		"/>
		<g>
			<path class="st0" d="M122.6,232.6c18.1,0,37.2-14.7,42.7-32.7l4.8-15.7H122l-14.8,48.5h15.4V232.6z"/>
		</g>
		<polygon class="st1" points="98.9,184.1 50.8,184.1 36,232.6 84.1,232.6 		"/>
		<polygon class="st2" points="122,184.1 98.9,184.1 106,161 129.1,161 		"/>
	</g>
</g>
</svg>
